<svg xmlns="http://www.w3.org/2000/svg" xmlns:xlink="http://www.w3.org/1999/xlink" width="27" height="27" preserveAspectRatio="xMidYMid meet" viewBox="0 0 24 24" style="-ms-transform: rotate(360deg); -webkit-transform: rotate(360deg); transform: rotate(360deg);"><path d="M4 18h2v4.081L11.101 18H16c1.103 0 2-.897 2-2V8c0-1.103-.897-2-2-2H4c-1.103 0-2 .897-2 2v8c0 1.103.897 2 2 2z" fill="#f82249"/><path d="M20 2H8c-1.103 0-2 .897-2 2h12c1.103 0 2 .897 2 2v8c1.103 0 2-.897 2-2V4c0-1.103-.897-2-2-2z" fill="#f82249"/><rect x="0" y="0" width="24" height="24" fill="rgba(0, 0, 0, 0)" /></svg>