<?xml version="1.0" encoding="iso-8859-1"?>
<!-- Generator: Adobe Illustrator 18.0.0, SVG Export Plug-In . SVG Version: 6.00 Build 0)  -->
<!DOCTYPE svg PUBLIC "-//W3C//DTD SVG 1.1//EN" "http://www.w3.org/Graphics/SVG/1.1/DTD/svg11.dtd">
<svg version="1.1" id="Capa_1" xmlns="http://www.w3.org/2000/svg" xmlns:xlink="http://www.w3.org/1999/xlink" x="23px" y="23px"
	 viewBox="0 0 451.732 451.732" style="enable-background:new 0 0 451.732 451.732;" xml:space="preserve">
<g id="XMLID_91_">
	<circle id="XMLID_92_" cx="46.54" cy="177.219" r="33.403"/>
	<path id="XMLID_525_" d="M433.672,283.105H177.576c-15.147,0-27.48-11.859-28.077-26.997c-0.284-7.21-0.293-14.145-0.07-20.806
		H12.5c-6.903,0-12.5,5.597-12.5,12.5v47.303c0,6.903,5.597,12.5,12.5,12.5h21.786v7.325c0,4.476,3.628,8.104,8.104,8.104h40.652
		c4.476,0,8.104-3.628,8.104-8.104v-7.325h272.08v7.325c0,4.476,3.628,8.104,8.104,8.104h40.652c4.476,0,8.104-3.628,8.104-8.104
		v-7.325h19.146c6.903,0,12.5-5.597,12.5-12.5v-18.531C446.83,280.677,440.519,283.105,433.672,283.105z"/>
	<path id="XMLID_795_" d="M229.811,146.104c14.68-9.092,34.196-4.783,43.489,10.222c9.146,14.766,4.66,34.274-10.222,43.489
		l-54.743,33.906c-8.893,5.508-20.062,6.32-29.793,1.862c-2.107-0.965-2.736-1.606-8.815-6.327
		c-0.49,8.188-0.604,16.875-0.242,26.063c0.171,4.346,3.743,7.785,8.092,7.785h256.097c3.974,0,7.361-2.881,7.999-6.803
		l5.171-31.802c5.05-31.058-16.426-57.291-46.657-66.021c-61.275-17.694-160.197-30.772-197.268-29.722
		c0,0-12.318,14.155-22.047,42.436l6.564,1.158L229.811,146.104z"/>
	<path id="XMLID_805_" d="M150.208,221.989c0.207-2.489,0.446-4.934,0.716-7.337l-27.471-21.337l61.534,28.202l0,0
		c0.001,0,0.002,0.001,0.002,0.001c4.95,2.267,10.691,1.838,15.193-0.947c0.002-0.001,0.005-0.003,0.007-0.004l54.743-33.906
		c7.567-4.685,9.903-14.621,5.215-22.188c-4.758-7.683-14.766-9.813-22.188-5.215l-47.396,29.356l-55.724-25.539l26.157,4.613
		c4.077-12.427,8.689-22.651,12.929-30.647l-60.092-0.8c-6.272-0.084-12.315,2.349-16.78,6.755
		c-4.465,4.406-6.978,10.416-6.978,16.689v38.464c0,12.85,10.344,23.306,23.193,23.444L150.208,221.989z"/>
</g>
<g>
</g>
<g>
</g>
<g>
</g>
<g>
</g>
<g>
</g>
<g>
</g>
<g>
</g>
<g>
</g>
<g>
</g>
<g>
</g>
<g>
</g>
<g>
</g>
<g>
</g>
<g>
</g>
<g>
</g>
</svg>
