<?xml version="1.0" encoding="iso-8859-1"?>
<!-- Generator: Adobe Illustrator 19.0.0, SVG Export Plug-In . SVG Version: 6.00 Build 0)  -->
<svg version="1.1" id="Layer_1" xmlns="http://www.w3.org/2000/svg" xmlns:xlink="http://www.w3.org/1999/xlink" x="0px" y="0px"
	 viewBox="0 0 512 512" style="enable-background:new 0 0 512 512;" xml:space="preserve">

<circle style="fill:#DB2B42;" cx="100.576" cy="100.488" r="10.384"/>
<path style="fill:#DB2B42;" d="M235.064,299.744c0,0,0,1.744,0-33.088s-38.016-35.472-38.016-35.472H144.12
	c0,0-38.016,0.424-38.016,35.472c0,34.832,0,33.088,0,33.088H235.064z"/>
<circle style="fill:#DB2B42;" cx="100.416" cy="100.488" r="10.384"/>
<path style="fill:#DB2B42;" d="M405.904,299.744c0,0,0,1.744,0-33.088s-38.016-35.472-38.016-35.472H314.96
	c0,0-38.016,0.424-38.016,35.472c0,34.832,0,33.088,0,33.088H405.904z"/>
</svg>
